<svg width="164" height="40" viewBox="0 0 164 40" fill="none" xmlns="http://www.w3.org/2000/svg" role="img" aria-labelledby="title">
  <title id="title">Atlas</title>
  <path d="M20 4C11.16 4 4 11.16 4 20s7.16 16 16 16 16-7.16 16-16S28.84 4 20 4Zm0 4.4c4.85 0 8.9 3.42 9.88 8H10.12c.98-4.58 5.03-8 9.88-8Zm0 23.2c-4.85 0-8.9-3.42-9.88-8h19.76c-.98 4.58-5.03 8-9.88 8Z" fill="#171717"/>
  <path d="M18 8h4v24h-4zM6.9 18h26.2v4H6.9z" fill="#171717"/>
  <circle cx="28" cy="12" r="3.25" fill="#C7F36A"/>
  <text x="46" y="27.4" fill="#171717" font-family="Arial, Helvetica, sans-serif" font-size="27" font-weight="700" letter-spacing="-1.8">Atlas</text>
</svg>
