<svg width="160" height="40" viewBox="0 0 160 40" fill="none" xmlns="http://www.w3.org/2000/svg">
  <path d="M12 32 22 8h4l10 24h-5.2l-2-5H19l-2 5H12Zm8.7-9h6.4l-3.2-8.2L20.7 23Z" fill="#171717"/>
  <path d="M43 14h4.7v3.5c1.4-2.4 3.7-3.9 6.8-3.9 5.2 0 8.8 4.1 8.8 9.6S59.7 33 54.5 33c-3 0-5.3-1.3-6.6-3.5v10H43V14Zm15.5 9.2c0-3.2-2.1-5.5-5.2-5.5-3.1 0-5.3 2.4-5.3 5.5 0 3.2 2.2 5.6 5.3 5.6 3.1 0 5.2-2.4 5.2-5.6Z" fill="#171717"/>
  <path d="M67.7 6h4.8v15.6l6.7-7.6h5.7l-7.3 8.1L85.5 32h-5.9l-7.1-9.2V32h-4.8V6Z" fill="#171717"/>
  <path d="M87.5 14h5l4.7 11.8L102 14h5l-8.7 21.1c-1.8 4.4-4.2 5.8-8.2 5.8-1.2 0-2.3-.2-3.3-.6l.8-4.2c.7.3 1.4.4 2.1.4 1.5 0 2.5-.6 3.1-2.2l.5-1.2-6-19.1Z" fill="#171717"/>
  <path d="M115.2 14h4.7v2.8c1.3-2 3.3-3.2 6-3.2 4.5 0 7.3 3 7.3 7.9V32h-4.8v-9.7c0-2.8-1.4-4.4-3.9-4.4-2.6 0-4.5 1.8-4.5 4.8V32h-4.8V14Z" fill="#171717"/>
  <circle cx="151" cy="28" r="4" fill="#C7F36A"/>
</svg>
